<svg width="68" height="70" viewBox="0 0 68 70" fill="none" xmlns="http://www.w3.org/2000/svg" xmlns:xlink="http://www.w3.org/1999/xlink">
<path d="M0,28L0,56C0,57.857 0.716,59.637 1.992,60.95C3.267,62.263 4.997,63 6.8,63L61.2,63C63.003,63 64.733,62.263 66.008,60.95C67.284,59.637 68,57.857 68,56L68,28L34,42L0,28Z" fill="#050C9C" fill-opacity="0.612"/>
<path d="M6.8,7C4.997,7 3.267,7.737 1.992,9.05C0.716,10.363 0,12.143 0,14L0,21L34,35L68,21L68,14C68,12.143 67.284,10.363 66.008,9.05C64.733,7.737 63.003,7 61.2,7L6.8,7Z" fill="#050C9C" fill-opacity="0.612"/>
</svg>
