<svg width="68" height="70" viewBox="0 0 68 70" fill="none" xmlns="http://www.w3.org/2000/svg" xmlns:xlink="http://www.w3.org/1999/xlink">
<path d="M36.357,1.834C35.732,1.194 34.884,0.834 34,0.834C33.116,0.834 32.269,1.194 31.643,1.834L8.31,25.751L1.643,32.584C1.325,32.9 1.071,33.277 0.896,33.693C0.722,34.11 0.63,34.559 0.626,35.012C0.622,35.466 0.706,35.916 0.874,36.336C1.042,36.756 1.289,37.137 1.602,37.458C1.915,37.779 2.287,38.032 2.697,38.204C3.106,38.376 3.545,38.462 3.988,38.458C4.431,38.455 4.868,38.36 5.275,38.181C5.681,38.002 6.049,37.742 6.357,37.416L7.333,36.414L7.333,58.917C7.333,61.635 8.387,64.242 10.262,66.164C12.138,68.087 14.681,69.167 17.333,69.167L50.667,69.167C53.319,69.167 55.862,68.087 57.738,66.164C59.613,64.242 60.667,61.635 60.667,58.917L60.667,36.414L61.643,37.416C62.272,38.038 63.114,38.382 63.988,38.374C64.862,38.367 65.698,38.007 66.316,37.374C66.934,36.74 67.285,35.883 67.292,34.988C67.3,34.092 66.964,33.229 66.357,32.584L36.357,1.834Z" clip-rule="evenodd" fill-rule="evenodd" fill="#050C9C"/>
</svg>
