<svg width="66" height="66" viewBox="0 0 66 66" fill="none" xmlns="http://www.w3.org/2000/svg" xmlns:xlink="http://www.w3.org/1999/xlink">
<path d="M15.733,0L50.267,0L50.267,4.4L65.067,4.4L65.067,59.4C65.067,61.15 64.287,62.829 62.899,64.067C61.512,65.305 59.629,66 57.667,66L8.333,66C6.371,66 4.489,65.305 3.101,64.067C1.713,62.829 0.933,61.15 0.933,59.4L0.933,4.4L15.733,4.4L15.733,0ZM20.667,4.4L45.333,4.4L45.333,11C45.333,11.583 45.074,12.143 44.611,12.556C44.148,12.968 43.521,13.2 42.867,13.2L23.133,13.2C22.479,13.2 21.852,12.968 21.389,12.556C20.927,12.143 20.667,11.583 20.667,11L20.667,4.4ZM30.652,49.421L49.655,30.048L45.945,27.152L30.415,42.984L22.413,35.842L18.92,38.958L30.652,49.421Z" clip-rule="evenodd" fill-rule="evenodd" fill="#050C9C" fill-opacity="0.612"/>
</svg>
