<svg width="62" height="56" viewBox="0 0 62 56" fill="none" xmlns="http://www.w3.org/2000/svg" xmlns:xlink="http://www.w3.org/1999/xlink">
<path d="M21.28,1.533C14.882,3.497 9.365,7.225 5.538,12.168C1.712,17.112 -0.222,23.012 0.02,29C0.263,34.988 2.669,40.75 6.885,45.439C11.101,50.128 16.906,53.497 23.446,55.051C28.748,56.262 34.302,56.315 39.633,55.206C44.462,54.246 48.926,52.193 52.589,49.248C56.401,46.089 59.168,42.07 60.592,37.623C62.14,32.788 62.416,27.703 61.398,22.759L31.624,22.759L31.624,33.688L48.867,33.688C48.522,35.431 47.784,37.095 46.696,38.58C45.608,40.064 44.192,41.339 42.534,42.329C40.429,43.561 38.055,44.391 35.566,44.763C33.07,45.174 30.509,45.174 28.013,44.763C25.482,44.301 23.089,43.376 20.984,42.05C17.604,39.932 15.065,36.924 13.731,33.453C12.375,29.918 12.375,26.086 13.731,22.551C14.681,20.073 16.25,17.816 18.323,15.95C20.695,13.776 23.698,12.221 27.003,11.458C30.308,10.694 33.786,10.751 37.057,11.621C39.612,12.315 41.948,13.528 43.88,15.163C45.824,13.451 47.765,11.735 49.702,10.014C50.703,9.089 51.793,8.208 52.779,7.261C49.83,4.833 46.369,2.943 42.594,1.701C35.72,-0.508 28.198,-0.567 21.28,1.533Z" fill="#FFFFFF"/>
</svg>
