<svg width="66" height="66" viewBox="0 0 66 66" fill="none" xmlns="http://www.w3.org/2000/svg" xmlns:xlink="http://www.w3.org/1999/xlink">
<path d="M63.92,45.33C63.641,45.041 63.367,44.752 63.098,44.473C59.403,40.627 57.167,38.306 57.167,27.418C57.167,21.781 55.6,17.156 52.511,13.688C50.234,11.125 47.155,9.181 43.097,7.745C43.044,7.72 42.998,7.687 42.959,7.648C41.499,3.442 37.505,0.625 33,0.625C28.495,0.625 24.502,3.442 23.043,7.643C23.004,7.681 22.958,7.713 22.907,7.737C13.437,11.092 8.834,17.528 8.834,27.414C8.834,38.306 6.602,40.627 2.903,44.469C2.635,44.748 2.361,45.031 2.082,45.326C1.362,46.073 0.905,46.982 0.767,47.946C0.629,48.91 0.814,49.887 1.301,50.763C2.337,52.642 4.546,53.808 7.067,53.808L58.951,53.808C61.461,53.808 63.654,52.643 64.694,50.773C65.183,49.897 65.37,48.919 65.233,47.954C65.096,46.989 64.64,46.079 63.92,45.33ZM33,65.375C35.427,65.373 37.809,64.806 39.892,63.734C41.975,62.662 43.682,61.125 44.832,59.286C44.886,59.198 44.913,59.099 44.909,58.999C44.906,58.9 44.873,58.802 44.813,58.717C44.753,58.632 44.669,58.561 44.568,58.512C44.467,58.463 44.353,58.437 44.237,58.437L21.766,58.437C21.65,58.437 21.536,58.463 21.435,58.512C21.334,58.56 21.249,58.631 21.189,58.716C21.129,58.802 21.096,58.899 21.092,58.999C21.089,59.099 21.116,59.198 21.17,59.286C22.32,61.125 24.027,62.662 26.109,63.734C28.192,64.806 30.573,65.373 33,65.375Z" fill="#050C9C"/>
</svg>
